HIERARCHY
ROOT Model
{
	OFFSET 0 0 0
	CHANNELS 6 Xposition Yposition Zposition Zrotation Xrotation Yrotation
	JOINT Model1
	{
		OFFSET 0 -2.25479 2.99384
		CHANNELS 3 Zrotation Xrotation Yrotation
		JOINT Model2
		{
			OFFSET 12.111 0 0
			CHANNELS 3 Zrotation Xrotation Yrotation
			JOINT Model3
			{
				OFFSET 11.5502 0 0
				CHANNELS 3 Zrotation Xrotation Yrotation
				JOINT Model4
				{
					OFFSET 11.781 0 0
					CHANNELS 3 Zrotation Xrotation Yrotation
					JOINT Model5
					{
						OFFSET 20.0601 0 0
						CHANNELS 3 Zrotation Xrotation Yrotation
						JOINT Model6
						{
							OFFSET 11.1962 0 0
							CHANNELS 3 Zrotation Xrotation Yrotation
							End Site
							{
								OFFSET 0 0 0
							}
						}
					}
					JOINT Model7
					{
						OFFSET 10.8223 0.417534 3.51114
						CHANNELS 3 Zrotation Xrotation Yrotation
						JOINT Model8
						{
							OFFSET -6.07943 0 0
							CHANNELS 3 Zrotation Xrotation Yrotation
							JOINT Model9
							{
								OFFSET -0.277416 10.39 -0.051239
								CHANNELS 3 Zrotation Xrotation Yrotation
								JOINT Model10
								{
									OFFSET -3.4391 -0.282043 1.86679
									CHANNELS 3 Zrotation Xrotation Yrotation
									JOINT Model11
									{
										OFFSET 13.0269 0 0
										CHANNELS 3 Zrotation Xrotation Yrotation
										JOINT Model12
										{
											OFFSET 10.8866 0 0
											CHANNELS 3 Zrotation Xrotation Yrotation
											JOINT Model13
											{
												OFFSET 16.7317 0 0
												CHANNELS 3 Zrotation Xrotation Yrotation
												JOINT Model14
												{
													OFFSET 11.8292 0 0
													CHANNELS 3 Zrotation Xrotation Yrotation
													JOINT Model15
													{
														OFFSET 4.82751 -3.73566 -0.836517
														CHANNELS 3 Zrotation Xrotation Yrotation
														JOINT Model16
														{
															OFFSET 3.75311 -0.0582886 -0.0186462
															CHANNELS 3 Zrotation Xrotation Yrotation
															JOINT Model17
															{
																OFFSET 2.88688 0.0192337 0.014801
																CHANNELS 3 Zrotation Xrotation Yrotation
																End Site
																{
																	OFFSET 0 0 0
																}
															}
														}
													}
													JOINT Model18
													{
														OFFSET 9.72197 -3.06458 0.23877
														CHANNELS 3 Zrotation Xrotation Yrotation
														JOINT Model19
														{
															OFFSET 4.61131 0 0
															CHANNELS 3 Zrotation Xrotation Yrotation
															JOINT Model20
															{
																OFFSET 2.8969 -7.62939e-006 0
																CHANNELS 3 Zrotation Xrotation Yrotation
																End Site
																{
																	OFFSET 0 0 0
																}
															}
														}
													}
													JOINT Model21
													{
														OFFSET 9.54431 -0.745064 0.588928
														CHANNELS 3 Zrotation Xrotation Yrotation
														JOINT Model22
														{
															OFFSET 5.33978 0 0
															CHANNELS 3 Zrotation Xrotation Yrotation
															JOINT Model23
															{
																OFFSET 3.03619 7.62939e-006 0
																CHANNELS 3 Zrotation Xrotation Yrotation
																End Site
																{
																	OFFSET 0 0 0
																}
															}
														}
													}
													JOINT Model24
													{
														OFFSET 9.47759 1.51286 0.485107
														CHANNELS 3 Zrotation Xrotation Yrotation
														JOINT Model25
														{
															OFFSET 4.96136 7.62939e-006 0
															CHANNELS 3 Zrotation Xrotation Yrotation
															JOINT Model26
															{
																OFFSET 2.51966 0 0
																CHANNELS 3 Zrotation Xrotation Yrotation
																End Site
																{
																	OFFSET 0 0 0
																}
															}
														}
													}
													JOINT Model27
													{
														OFFSET 9.34247 3.34117 -0.239288
														CHANNELS 3 Zrotation Xrotation Yrotation
														JOINT Model28
														{
															OFFSET 3.2826 2.28882e-005 0
															CHANNELS 3 Zrotation Xrotation Yrotation
															JOINT Model29
															{
																OFFSET 2.1292 0 0
																CHANNELS 3 Zrotation Xrotation Yrotation
																End Site
																{
																	OFFSET 0 0 0
																}
															}
														}
													}
												}
											}
										}
									}
								}
							}
						}
					}
					JOINT Model30
					{
						OFFSET 10.8223 0.4179 -3.51108
						CHANNELS 3 Zrotation Xrotation Yrotation
						JOINT Model31
						{
							OFFSET 6.07943 0 0
							CHANNELS 3 Zrotation Xrotation Yrotation
							JOINT Model32
							{
								OFFSET 0.277416 -10.39 0.051239
								CHANNELS 3 Zrotation Xrotation Yrotation
								JOINT Model33
								{
									OFFSET 3.4391 0.282043 -1.86679
									CHANNELS 3 Zrotation Xrotation Yrotation
									JOINT Model34
									{
										OFFSET -13.0269 0 0
										CHANNELS 3 Zrotation Xrotation Yrotation
										JOINT Model35
										{
											OFFSET -10.8866 0 0
											CHANNELS 3 Zrotation Xrotation Yrotation
											JOINT Model36
											{
												OFFSET -16.7317 0 0
												CHANNELS 3 Zrotation Xrotation Yrotation
												JOINT Model37
												{
													OFFSET -11.8292 0 0
													CHANNELS 3 Zrotation Xrotation Yrotation
													JOINT Model38
													{
														OFFSET -4.82751 3.73566 0.836517
														CHANNELS 3 Zrotation Xrotation Yrotation
														JOINT Model39
														{
															OFFSET -3.75311 0.0582886 0.0186462
															CHANNELS 3 Zrotation Xrotation Yrotation
															JOINT Model40
															{
																OFFSET -2.88688 -0.0192337 -0.014801
																CHANNELS 3 Zrotation Xrotation Yrotation
																End Site
																{
																	OFFSET 0 0 0
																}
															}
														}
													}
													JOINT Model41
													{
														OFFSET -9.72197 3.06459 -0.23877
														CHANNELS 3 Zrotation Xrotation Yrotation
														JOINT Model42
														{
															OFFSET -4.6113 0 0
															CHANNELS 3 Zrotation Xrotation Yrotation
															JOINT Model43
															{
																OFFSET -2.8969 0 0
																CHANNELS 3 Zrotation Xrotation Yrotation
																End Site
																{
																	OFFSET 0 0 0
																}
															}
														}
													}
													JOINT Model44
													{
														OFFSET -9.5443 0.745064 -0.588928
														CHANNELS 3 Zrotation Xrotation Yrotation
														JOINT Model45
														{
															OFFSET -5.33978 0 0
															CHANNELS 3 Zrotation Xrotation Yrotation
															JOINT Model46
															{
																OFFSET -3.03619 -1.52588e-005 0
																CHANNELS 3 Zrotation Xrotation Yrotation
																End Site
																{
																	OFFSET 0 0 0
																}
															}
														}
													}
													JOINT Model47
													{
														OFFSET -9.47759 -1.51286 -0.485107
														CHANNELS 3 Zrotation Xrotation Yrotation
														JOINT Model48
														{
															OFFSET -4.96136 -1.52588e-005 0
															CHANNELS 3 Zrotation Xrotation Yrotation
															JOINT Model49
															{
																OFFSET -2.51966 0 0
																CHANNELS 3 Zrotation Xrotation Yrotation
																End Site
																{
																	OFFSET 0 0 0
																}
															}
														}
													}
													JOINT Model50
													{
														OFFSET -9.34246 -3.34118 0.239288
														CHANNELS 3 Zrotation Xrotation Yrotation
														JOINT Model51
														{
															OFFSET -3.2826 -2.28882e-005 0
															CHANNELS 3 Zrotation Xrotation Yrotation
															JOINT Model52
															{
																OFFSET -2.1292 0 0
																CHANNELS 3 Zrotation Xrotation Yrotation
																End Site
																{
																	OFFSET 0 0 0
																}
															}
														}
													}
												}
											}
										}
									}
								}
							}
						}
					}
				}
			}
		}
	}
	JOINT Model53
	{
		OFFSET 4.38026 -2.14632 -1.11517
		CHANNELS 3 Zrotation Xrotation Yrotation
		JOINT Model54
		{
			OFFSET 0 0 4.94998
			CHANNELS 3 Zrotation Xrotation Yrotation
			JOINT Model55
			{
				OFFSET 18.5642 0 0
				CHANNELS 3 Zrotation Xrotation Yrotation
				JOINT Model56
				{
					OFFSET 21.2884 0 0
					CHANNELS 3 Zrotation Xrotation Yrotation
					JOINT Model57
					{
						OFFSET 30.261 0 0
						CHANNELS 3 Zrotation Xrotation Yrotation
						JOINT Model58
						{
							OFFSET 11.7259 0 0
							CHANNELS 3 Zrotation Xrotation Yrotation
							JOINT Model59
							{
								OFFSET 10.682 0 0
								CHANNELS 3 Zrotation Xrotation Yrotation
								End Site
								{
									OFFSET 0 0 0
								}
							}
						}
					}
				}
			}
		}
	}
	JOINT Model60
	{
		OFFSET -4.38026 -2.14632 -1.11517
		CHANNELS 3 Zrotation Xrotation Yrotation
		JOINT Model61
		{
			OFFSET 0 0 -4.94998
			CHANNELS 3 Zrotation Xrotation Yrotation
			JOINT Model62
			{
				OFFSET -18.5642 0 0
				CHANNELS 3 Zrotation Xrotation Yrotation
				JOINT Model63
				{
					OFFSET -21.2884 0 0
					CHANNELS 3 Zrotation Xrotation Yrotation
					JOINT Model64
					{
						OFFSET -30.261 0 0
						CHANNELS 3 Zrotation Xrotation Yrotation
						JOINT Model65
						{
							OFFSET -11.7259 0 0
							CHANNELS 3 Zrotation Xrotation Yrotation
							JOINT Model66
							{
								OFFSET -10.682 0 0
								CHANNELS 3 Zrotation Xrotation Yrotation
								End Site
								{
									OFFSET 0 0 0
								}
							}
						}
					}
				}
			}
		}
	}
}
MOTION
Frames: 4
Frame Time: 0.033333
-329.103 170.114 8.159 112.369 13.6605 88.6935 -180 4.29621e-031 -90 3.60377 -0.924654 0.899853 7.22296 -1.79123 1.8564 7.22296 -1.7908 1.85635 28.4691 19.9898 2.17668 -7.46198 21.575 -9.59387 120.092 75.5343 58.4939 -17.0786 -5.49142 0.761191 -167.277 84.4999 48.8109 165.937 11.2321 22.7572 -4.70338e-006 34.3884 3.85802e-005 -67.1345 -14.5237 0.580336 -2.30054e-006 -22.436 -2.9943e-006 24.5746 3.57905 16.3265 -72.0648 39.0385 39.3397 33.3638 2.10362 14.835 0.588947 0.308273 6.35287 -99.6409 81.413 100.35 -0.0181409 2.7712e-005 -0.117315 -0.124139 0.00241103 -0.799296 -79.8382 79.5773 80.5374 -0.00022578 -0.000220993 2.22227e-005 -0.000956232 0.000122799 -2.72825e-005 -66.7416 80.4058 67.2171 -0.000437135 1.58778e-005 -2.72922e-005 -0.000136607 -0.000109383 -5.4603e-005 -6.42159 81.2158 8.01779 -0.000218567 1.68482e-005 0.000212168 0.000901584 -0.000184883 -0.000218528 -59.9282 75.5373 58.5147 -20.6441 -6.10597 0.924926 -167.277 84.4999 48.8109 -163.58 12.6633 15.2048 -1.91805e-005 35.3033 4.52546e-005 -109.186 18.9437 0.608882 -1.2514e-005 28.3419 6.66083e-006 -11.2347 0.810954 -8.23099 -72.0648 39.0385 39.3397 33.3638 2.10361 14.835 0.588946 0.308273 6.35287 -99.6409 81.413 100.35 -0.0181409 3.01201e-005 -0.117315 -0.124139 0.00241119 -0.799296 -79.8382 79.5773 80.5374 -0.000260633 -0.000218523 2.35587e-005 -0.000956209 0.000123055 -2.73365e-005 -66.7416 80.4058 67.2171 -0.00043712 1.49239e-005 -2.73333e-005 -0.000136588 -0.000109225 -5.46585e-005 -6.42159 81.2158 8.01779 -0.000218557 1.96142e-005 0.000212283 0.000901595 -0.000191197 -0.000218585 0.000811311 0.56661 89.91 -7.92088 -4.02432 -17.3812 2.63603e-006 7.0575 -1.46852e-007 43.7104 7.25545 -0.00587763 2.78966e-007 10.8015 3.30178e-007 -67.6584 -3.19959 0.82805 -35.4947 4.31675e-007 2.06442e-007 -180 -0.566579 -90.09 2.93208 -12.1647 -8.87683 -3.66218e-006 -10.0248 -3.71368e-007 43.7764 -3.59999 10.0753 2.45535e-007 -5.56663 -3.81679e-007 -73.2672 3.51593 -2.79444 -35.4947 3.4254e-007 2.97019e-007 
-328.92 170.15 7.61499 112.325 13.8598 88.582 -180 4.29621e-031 -90 3.60764 -0.980906 0.874371 7.23135 -1.90516 1.80912 7.23135 -1.90473 1.80907 28.8956 19.8696 1.79855 -8.53434 21.5425 -9.46583 120.092 75.5343 58.4939 -17.0502 -5.34226 0.830043 -167.277 84.4999 48.8109 165.922 11.1184 22.7961 -4.5539e-006 34.2048 3.8496e-005 -66.9857 -14.0777 0.578533 -2.26293e-006 -21.7677 -2.98015e-006 24.3601 3.6123 16.6237 -72.0648 39.0385 39.3397 33.3638 2.10362 14.835 0.588947 0.308273 6.35287 -99.6409 81.413 100.35 -0.0181409 2.7712e-005 -0.117315 -0.124139 0.00241103 -0.799296 -79.8382 79.5773 80.5374 -0.00022578 -0.000220993 2.22227e-005 -0.000956232 0.000122799 -2.72825e-005 -66.7416 80.4058 67.2171 -0.000437135 1.58778e-005 -2.72922e-005 -0.000136607 -0.000109383 -5.4603e-005 -6.42159 81.2158 8.01779 -0.000218567 1.68482e-005 0.000212168 0.000901584 -0.000184883 -0.000218528 -59.9282 75.5373 58.5147 -20.5315 -6.71467 0.589046 -167.277 84.4999 48.8109 -164.262 12.8911 15.4319 -1.9452e-005 35.5829 4.54121e-005 -109.279 18.7566 0.607854 -1.24773e-005 28.0634 6.64349e-006 -11.0685 0.750945 -7.73868 -72.0648 39.0385 39.3397 33.3638 2.10361 14.835 0.588946 0.308273 6.35287 -99.6409 81.413 100.35 -0.0181409 3.01201e-005 -0.117315 -0.124139 0.00241119 -0.799296 -79.8382 79.5773 80.5374 -0.000260633 -0.000218523 2.35587e-005 -0.000956209 0.000123055 -2.73365e-005 -66.7416 80.4058 67.2171 -0.00043712 1.49239e-005 -2.73333e-005 -0.000136588 -0.000109225 -5.46585e-005 -6.42159 81.2158 8.01779 -0.000218557 1.96142e-005 0.000212283 0.000901595 -0.000191197 -0.000218585 0.000811311 0.56661 89.91 -7.59987 -3.90956 -16.9653 2.63588e-006 7.00258 -1.46835e-007 43.5457 7.24161 -0.00587968 2.79086e-007 10.781 3.30155e-007 -68.288 -3.60098 0.998647 -35.4947 3.81037e-007 1.96568e-007 -180 -0.566579 -90.09 2.81622 -11.4393 -8.46572 -3.65755e-006 -9.31999 -3.7059e-007 43.8822 -4.42553 9.38887 2.37193e-007 -6.81018 -3.82578e-007 -73.2325 2.124 -2.1222 -35.4947 3.43529e-007 -1.10491e-006 
-328.714 170.173 7.05301 112.395 13.9151 88.4999 -180 4.29621e-031 -90 3.62203 -1.00384 0.850883 7.26017 -1.95224 1.76389 7.26017 -1.9518 1.76383 28.9321 19.828 1.95812 -8.87067 21.5691 -9.77153 120.092 75.5343 58.4939 -16.9892 -5.31302 0.835933 -167.277 84.4999 48.8109 165.685 11.0657 22.9101 -4.50413e-006 34.1435 3.8468e-005 -66.7481 -13.998 0.577311 -2.25629e-006 -21.6491 -2.97769e-006 24.0754 3.59694 16.7528 -72.0648 39.0385 39.3397 33.3638 2.10362 14.835 0.588947 0.308273 6.35287 -99.6409 81.413 100.35 -0.0181409 2.7712e-005 -0.117315 -0.124139 0.00241103 -0.799296 -79.8382 79.5773 80.5374 -0.00022578 -0.000220993 2.22227e-005 -0.000956232 0.000122799 -2.72825e-005 -66.7416 80.4058 67.2171 -0.000437135 1.58778e-005 -2.72922e-005 -0.000136607 -0.000109383 -5.4603e-005 -6.42159 81.2158 8.01779 -0.000218567 1.68482e-005 0.000212168 0.000901584 -0.000184883 -0.000218528 -59.9282 75.5373 58.5147 -20.491 -7.2363 0.308481 -167.277 84.4999 48.8109 -164.688 13.071 15.5532 -1.96956e-005 35.8321 4.55543e-005 -109.408 18.6674 0.607056 -1.24601e-005 27.9324 6.63542e-006 -10.9199 0.707818 -7.39509 -72.0648 39.0385 39.3397 33.3638 2.10361 14.835 0.588946 0.308273 6.35287 -99.6409 81.413 100.35 -0.0181409 3.01201e-005 -0.117315 -0.124139 0.00241119 -0.799296 -79.8382 79.5773 80.5374 -0.000260633 -0.000218523 2.35587e-005 -0.000956209 0.000123055 -2.73365e-005 -66.7416 80.4058 67.2171 -0.00043712 1.49239e-005 -2.73333e-005 -0.000136588 -0.000109225 -5.46585e-005 -6.42159 81.2158 8.01779 -0.000218557 1.96142e-005 0.000212283 0.000901595 -0.000191197 -0.000218585 0.000811311 0.56661 89.91 -7.23936 -3.9835 -16.703 2.63534e-006 6.79015 -1.46769e-007 43.5102 7.31056 -0.00588171 2.78479e-007 10.8845 3.30269e-007 -68.8058 -3.72105 1.02362 -35.4947 2.79461e-007 1.99542e-007 -180 -0.566579 -90.09 2.94167 -11.177 -8.44949 -3.65492e-006 -8.91707 -3.70172e-007 43.878 -4.80494 8.95281 2.33371e-007 -7.37783 -3.8305e-007 -73.1481 1.22094 -1.6847 -35.4947 3.53515e-007 -5.06861e-006 
-328.488 170.186 6.47101 112.572 13.7872 88.4578 -180 4.29621e-031 -90 3.64167 -0.987852 0.827009 7.29878 -1.9215 1.71547 7.29878 -1.92107 1.71542 28.5842 19.8735 2.70281 -8.3978 21.6606 -10.5562 120.092 75.5343 58.4939 -16.8838 -5.38671 0.785719 -167.277 84.4999 48.8109 165.231 11.067 23.0963 -4.5455e-006 34.1945 3.84913e-005 -66.4473 -14.3499 0.576918 -2.28599e-006 -22.1783 -2.98878e-006 23.7749 3.53902 16.6983 -72.0648 39.0385 39.3397 33.3638 2.10362 14.835 0.588947 0.308273 6.35287 -99.6409 81.413 100.35 -0.0181409 2.7712e-005 -0.117315 -0.124139 0.00241103 -0.799296 -79.8382 79.5773 80.5374 -0.00022578 -0.000220993 2.22227e-005 -0.000956232 0.000122799 -2.72825e-005 -66.7416 80.4058 67.2171 -0.000437135 1.58778e-005 -2.72922e-005 -0.000136607 -0.000109383 -5.4603e-005 -6.42159 81.2158 8.01779 -0.000218567 1.68482e-005 0.000212168 0.000901584 -0.000184883 -0.000218528 -59.9282 75.5373 58.5147 -20.5089 -7.62604 0.104336 -167.277 84.4999 48.8109 -164.795 13.183 15.5491 -1.98821e-005 36.0217 4.56637e-005 -109.553 18.6696 0.606525 -1.2461e-005 27.9388 6.63581e-006 -10.8161 0.692688 -7.30707 -72.0648 39.0385 39.3397 33.3638 2.10361 14.835 0.588946 0.308273 6.35287 -99.6409 81.413 100.35 -0.0181409 3.01201e-005 -0.117315 -0.124139 0.00241119 -0.799296 -79.8382 79.5773 80.5374 -0.000260633 -0.000218523 2.35587e-005 -0.000956209 0.000123055 -2.73365e-005 -66.7416 80.4058 67.2171 -0.00043712 1.49239e-005 -2.73333e-005 -0.000136588 -0.000109225 -5.46585e-005 -6.42159 81.2158 8.01779 -0.000218557 1.96142e-005 0.000212283 0.000901595 -0.000191197 -0.000218585 0.000811311 0.56661 89.91 -6.83288 -4.22802 -16.5661 2.6344e-006 6.42916 -1.46662e-007 43.6249 7.42482 -0.00588655 2.77473e-007 11.0557 3.30461e-007 -69.1591 -3.51082 0.886349 -35.4947 1.65151e-007 2.05727e-007 -180 -0.566579 -90.09 3.28177 -11.4495 -8.90872 -3.65448e-006 -8.8497 -3.70104e-007 43.7704 -4.6487 8.8009 2.3499e-007 -7.13756 -3.82846e-007 -73.0651 0.894861 -1.52517 -35.4947 3.71271e-007 -1.12599e-005 
